<?xml version="1.0" encoding="UTF-8"?>
<svg width="100" height="100" viewBox="0 0 100 100" xmlns="http://www.w3.org/2000/svg">
  <!-- Center -->
  <circle cx="50" cy="50" r="8" fill="#fda4af"/>
  <!-- Petals -->
  <path d="M50 42 C53 40 56 42 54 45 C52 48 48 45 50 42" fill="#fda4af"/>
  <path d="M58 50 C61 48 64 50 62 53 C60 56 56 53 58 50" fill="#fda4af"/>
  <path d="M50 58 C53 56 56 58 54 61 C52 64 48 61 50 58" fill="#fda4af"/>
  <path d="M42 50 C45 48 48 50 46 53 C44 56 40 53 42 50" fill="#fda4af"/>
  <!-- Stem -->
  <path d="M50 58 L50 70" stroke="#2d5a27" stroke-width="2" fill="none"/>
  <!-- Small Branch -->
  <path d="M50 65 C55 63 58 65 56 68" stroke="#2d5a27" stroke-width="2" fill="none"/>
</svg> 