<?xml version="1.0" encoding="UTF-8"?>
<svg width="100" height="100" viewBox="0 0 100 100" xmlns="http://www.w3.org/2000/svg">
  <!-- Center -->
  <circle cx="50" cy="50" r="10" fill="#8b5cf6"/>
  <!-- Inner Petals -->
  <path d="M50 40 C55 35 60 40 55 45 C50 50 45 45 50 40" fill="#8b5cf6"/>
  <path d="M60 50 C65 45 70 50 65 55 C60 60 55 55 60 50" fill="#8b5cf6"/>
  <path d="M50 60 C55 55 60 60 55 65 C50 70 45 65 50 60" fill="#8b5cf6"/>
  <path d="M40 50 C45 45 50 50 45 55 C40 60 35 55 40 50" fill="#8b5cf6"/>
  <!-- Outer Petals -->
  <path d="M50 35 C60 30 70 35 60 40 C50 45 40 40 50 35" fill="#a78bfa"/>
  <path d="M65 50 C75 45 85 50 75 55 C65 60 55 55 65 50" fill="#a78bfa"/>
  <path d="M50 65 C60 60 70 65 60 70 C50 75 40 70 50 65" fill="#a78bfa"/>
  <path d="M35 50 C45 45 55 50 45 55 C35 60 25 55 35 50" fill="#a78bfa"/>
  <path d="M58 38 C68 33 78 38 68 43 C58 48 48 43 58 38" fill="#a78bfa"/>
  <path d="M42 38 C52 33 62 38 52 43 C42 48 32 43 42 38" fill="#a78bfa"/>
  <path d="M58 62 C68 57 78 62 68 67 C58 72 48 67 58 62" fill="#a78bfa"/>
  <path d="M42 62 C52 57 62 62 52 67 C42 72 32 67 42 62" fill="#a78bfa"/>
</svg> 