<?xml version="1.0" encoding="UTF-8"?>
<svg width="100" height="100" viewBox="0 0 100 100" xmlns="http://www.w3.org/2000/svg">
  <!-- Stem -->
  <path d="M50 90 L50 60" stroke="#2d5a27" stroke-width="3" fill="none"/>
  <!-- Leaves -->
  <path d="M50 70 C60 65 65 75 50 80" fill="#2d5a27"/>
  <path d="M50 80 C40 75 35 85 50 90" fill="#2d5a27"/>
  <!-- Center -->
  <circle cx="50" cy="50" r="15" fill="#8b5a2b"/>
  <!-- Petals -->
  <path d="M50 35 C55 30 60 35 55 40 C50 45 45 40 50 35" fill="#eab308"/>
  <path d="M65 50 C70 45 75 50 70 55 C65 60 60 55 65 50" fill="#eab308"/>
  <path d="M50 65 C55 60 60 65 55 70 C50 75 45 70 50 65" fill="#eab308"/>
  <path d="M35 50 C40 45 45 50 40 55 C35 60 30 55 35 50" fill="#eab308"/>
  <path d="M58 38 C63 33 68 38 63 43 C58 48 53 43 58 38" fill="#eab308"/>
  <path d="M42 38 C47 33 52 38 47 43 C42 48 37 43 42 38" fill="#eab308"/>
  <path d="M58 62 C63 57 68 62 63 67 C58 72 53 67 58 62" fill="#eab308"/>
  <path d="M42 62 C47 57 52 62 47 67 C42 72 37 67 42 62" fill="#eab308"/>
</svg> 