<?xml version="1.0" encoding="UTF-8"?>
<svg width="100" height="100" viewBox="0 0 100 100" xmlns="http://www.w3.org/2000/svg">
  <!-- Stem -->
  <path d="M50 90 L50 50" stroke="#2d5a27" stroke-width="3" fill="none"/>
  <!-- Leaves -->
  <path d="M50 70 C60 65 65 75 50 80" fill="#2d5a27"/>
  <path d="M50 60 C40 55 35 65 50 70" fill="#2d5a27"/>
  <!-- Tulip Petals -->
  <path d="M50 30 C60 20 70 30 60 40 C50 50 40 40 50 30" fill="#ec4899"/>
  <path d="M50 30 C40 20 30 30 40 40 C50 50 60 40 50 30" fill="#ec4899"/>
  <path d="M50 30 C45 20 40 30 45 40 C50 50 55 40 50 30" fill="#ec4899"/>
  <path d="M50 30 C55 20 60 30 55 40 C50 50 45 40 50 30" fill="#ec4899"/>
</svg> 